<svg width="139" height="39" viewBox="0 0 139 39" fill="none" xmlns="http://www.w3.org/2000/svg">
<path d="M135.908 34.1552C135.908 34.9147 135.989 35.4776 136.152 35.8438C136.328 36.2101 136.64 36.3932 137.088 36.3932C137.4 36.3932 137.691 36.3457 137.962 36.2507C138.247 36.1558 138.464 36.0541 138.614 35.9456C138.654 35.9184 138.702 35.9184 138.756 35.9456C138.81 35.9591 138.858 35.993 138.898 36.0473C138.939 36.088 138.966 36.1355 138.98 36.1897C139.007 36.244 139.007 36.2914 138.98 36.3321C138.722 36.7526 138.383 37.051 137.962 37.2273C137.556 37.4036 137.074 37.4918 136.518 37.4918C135.596 37.4918 134.945 37.2884 134.565 36.8815C134.185 36.461 133.995 35.8099 133.995 34.9283V29.6995C133.995 29.5368 133.988 29.4079 133.975 29.313C133.961 29.218 133.921 29.1502 133.853 29.1095C133.785 29.0688 133.67 29.0485 133.507 29.0485C133.358 29.0349 133.141 29.0281 132.856 29.0281C132.815 29.0281 132.781 28.9874 132.754 28.906C132.727 28.8247 132.707 28.7365 132.693 28.6416C132.693 28.5466 132.707 28.4584 132.734 28.3771C132.761 28.2957 132.801 28.255 132.856 28.255C133.195 28.2279 133.486 28.1804 133.731 28.1126C133.975 28.0312 134.178 27.9091 134.341 27.7464C134.517 27.5836 134.653 27.3666 134.748 27.0953C134.856 26.8105 134.945 26.4442 135.012 25.9966C135.026 25.9153 135.08 25.8542 135.175 25.8135C135.27 25.7728 135.372 25.7525 135.48 25.7525C135.589 25.7525 135.684 25.7728 135.765 25.8135C135.86 25.8407 135.908 25.8814 135.908 25.9356V27.6853C135.908 27.9023 135.914 28.0312 135.928 28.0719C135.955 28.099 136.043 28.1126 136.192 28.1126H138.308C138.403 28.1126 138.464 28.1668 138.491 28.2753C138.519 28.3838 138.532 28.4788 138.532 28.5602C138.532 28.6416 138.512 28.7433 138.471 28.8654C138.444 28.9739 138.376 29.0281 138.268 29.0281H136.091C135.996 29.0281 135.941 29.0552 135.928 29.1095C135.914 29.1502 135.908 29.3197 135.908 29.6181V34.1552Z" fill="#1A1A1A"/>
<path d="M129.212 34.1552C129.212 34.9147 129.293 35.4776 129.456 35.8438C129.632 36.2101 129.944 36.3932 130.392 36.3932C130.704 36.3932 130.995 36.3457 131.267 36.2507C131.551 36.1558 131.768 36.0541 131.918 35.9456C131.958 35.9184 132.006 35.9184 132.06 35.9456C132.114 35.9591 132.162 35.993 132.202 36.0473C132.243 36.088 132.27 36.1355 132.284 36.1897C132.311 36.244 132.311 36.2914 132.284 36.3321C132.026 36.7526 131.687 37.051 131.267 37.2273C130.86 37.4036 130.378 37.4918 129.822 37.4918C128.9 37.4918 128.249 37.2884 127.869 36.8815C127.489 36.461 127.299 35.8099 127.299 34.9283V29.6995C127.299 29.5368 127.292 29.4079 127.279 29.313C127.265 29.218 127.225 29.1502 127.157 29.1095C127.089 29.0688 126.974 29.0485 126.811 29.0485C126.662 29.0349 126.445 29.0281 126.16 29.0281C126.119 29.0281 126.085 28.9874 126.058 28.906C126.031 28.8247 126.011 28.7365 125.997 28.6416C125.997 28.5466 126.011 28.4584 126.038 28.3771C126.065 28.2957 126.106 28.255 126.16 28.255C126.499 28.2279 126.791 28.1804 127.035 28.1126C127.279 28.0312 127.482 27.9091 127.645 27.7464C127.821 27.5836 127.957 27.3666 128.052 27.0953C128.16 26.8105 128.249 26.4442 128.316 25.9966C128.33 25.9153 128.384 25.8542 128.479 25.8135C128.574 25.7728 128.676 25.7525 128.784 25.7525C128.893 25.7525 128.988 25.7728 129.069 25.8135C129.164 25.8407 129.212 25.8814 129.212 25.9356V27.6853C129.212 27.9023 129.218 28.0312 129.232 28.0719C129.259 28.099 129.347 28.1126 129.496 28.1126H131.612C131.707 28.1126 131.768 28.1668 131.796 28.2753C131.823 28.3838 131.836 28.4788 131.836 28.5602C131.836 28.6416 131.816 28.7433 131.775 28.8654C131.748 28.9739 131.68 29.0281 131.572 29.0281H129.395C129.3 29.0281 129.246 29.0552 129.232 29.1095C129.218 29.1502 129.212 29.3197 129.212 29.6181V34.1552Z" fill="#1A1A1A"/>
<path d="M118.911 32.1004C118.843 32.1004 118.802 32.1275 118.789 32.1817C118.789 32.2224 118.789 32.2767 118.789 32.3445C118.789 33.0498 118.863 33.6466 119.013 34.1349C119.175 34.6232 119.392 35.0233 119.664 35.3353C119.949 35.6337 120.281 35.8507 120.661 35.9863C121.054 36.122 121.474 36.1898 121.922 36.1898C122.383 36.1898 122.831 36.1559 123.265 36.0881C123.699 36.0067 124.072 35.8371 124.384 35.5794C124.452 35.5252 124.519 35.5048 124.587 35.5184C124.669 35.532 124.73 35.5659 124.77 35.6201C124.825 35.6744 124.859 35.7354 124.872 35.8032C124.886 35.871 124.872 35.9321 124.831 35.9863C124.397 36.556 123.909 36.9493 123.367 37.1664C122.824 37.3834 122.153 37.4919 121.352 37.4919C120.539 37.4919 119.833 37.3698 119.236 37.1257C118.653 36.8815 118.165 36.5424 117.772 36.1084C117.392 35.6608 117.107 35.1454 116.917 34.5622C116.741 33.9654 116.653 33.3211 116.653 32.6293C116.653 31.9647 116.761 31.334 116.978 30.7372C117.209 30.1404 117.527 29.625 117.934 29.191C118.341 28.7569 118.823 28.4111 119.379 28.1533C119.935 27.8956 120.552 27.7668 121.23 27.7668C121.8 27.7668 122.315 27.8685 122.777 28.072C123.251 28.2619 123.651 28.5331 123.977 28.8858C124.302 29.2249 124.553 29.6386 124.73 30.1269C124.92 30.6016 125.015 31.117 125.015 31.6731C125.015 31.9579 124.913 32.1004 124.709 32.1004H118.911ZM122.634 31.3883C122.824 31.3883 122.933 31.3205 122.96 31.1848C122.987 31.0492 123 30.8864 123 30.6965C123 30.4117 122.953 30.1404 122.858 29.8827C122.777 29.6114 122.654 29.3741 122.492 29.1706C122.329 28.9672 122.132 28.8044 121.902 28.6823C121.671 28.5603 121.407 28.4992 121.108 28.4992C120.742 28.4992 120.423 28.567 120.152 28.7027C119.894 28.8247 119.67 28.9943 119.481 29.2113C119.304 29.4148 119.169 29.6589 119.074 29.9437C118.979 30.2286 118.911 30.527 118.87 30.8389C118.843 31.0017 118.83 31.1373 118.83 31.2459C118.843 31.3408 118.877 31.3883 118.931 31.3883H122.634Z" fill="#1A1A1A"/>
<path d="M115.74 37.39C115.523 37.3764 115.299 37.3629 115.068 37.3493C114.851 37.3357 114.621 37.329 114.377 37.329C114.105 37.329 113.834 37.3357 113.563 37.3493C113.305 37.3764 113.061 37.39 112.83 37.39C112.736 37.39 112.668 37.3561 112.627 37.2883C112.586 37.2204 112.559 37.1594 112.546 37.1052C112.437 36.5355 112.254 36.0065 111.996 35.5182C111.752 35.0164 111.467 34.5755 111.142 34.1958C110.816 33.816 110.464 33.5176 110.084 33.3006C109.718 33.0835 109.351 32.975 108.985 32.975V34.562C108.985 34.9553 108.992 35.2808 109.006 35.5386C109.019 35.7963 109.06 36.0065 109.128 36.1693C109.209 36.332 109.331 36.4609 109.494 36.5558C109.657 36.6508 109.894 36.7254 110.206 36.7796C110.287 36.7932 110.348 36.8339 110.389 36.9017C110.43 36.9695 110.45 37.0373 110.45 37.1052C110.45 37.173 110.43 37.234 110.389 37.2883C110.348 37.3561 110.287 37.39 110.206 37.39C109.826 37.39 109.48 37.3629 109.168 37.3086C108.856 37.2679 108.497 37.2476 108.09 37.2476C107.656 37.2476 107.229 37.2679 106.808 37.3086C106.388 37.3629 105.96 37.39 105.526 37.39C105.459 37.39 105.404 37.3561 105.364 37.2883C105.323 37.234 105.303 37.173 105.303 37.1052C105.303 37.0238 105.323 36.956 105.364 36.9017C105.404 36.8339 105.465 36.7932 105.547 36.7796C105.927 36.7389 106.218 36.6779 106.422 36.5965C106.639 36.5151 106.795 36.4066 106.89 36.271C106.985 36.1218 107.039 35.9455 107.052 35.742C107.066 35.525 107.073 35.2605 107.073 34.9485V26.9528C107.073 26.3696 107.059 25.9084 107.032 25.5693C107.005 25.2166 106.93 24.9454 106.808 24.7555C106.686 24.5656 106.503 24.4367 106.259 24.3689C106.015 24.3011 105.676 24.2468 105.242 24.2062C105.174 24.2062 105.12 24.1722 105.079 24.1044C105.052 24.0366 105.031 23.9688 105.018 23.901C105.018 23.8332 105.031 23.7653 105.059 23.6975C105.099 23.6297 105.16 23.5958 105.242 23.5958C105.73 23.5687 106.266 23.528 106.849 23.4737C107.446 23.4195 107.995 23.3177 108.497 23.1685C108.687 23.1143 108.809 23.1278 108.863 23.2092C108.931 23.277 108.972 23.3516 108.985 23.433V32.1002C109.243 31.9374 109.487 31.7543 109.718 31.5509C109.948 31.3474 110.158 31.1372 110.348 30.9201C110.538 30.7031 110.715 30.4929 110.877 30.2894C111.04 30.086 111.182 29.9097 111.305 29.7605C111.576 29.4078 111.691 29.1569 111.65 29.0077C111.623 28.8449 111.393 28.75 110.959 28.7228C110.891 28.7228 110.837 28.6889 110.796 28.6211C110.755 28.5533 110.735 28.4855 110.735 28.4177C110.735 28.3363 110.755 28.2685 110.796 28.2142C110.837 28.1464 110.891 28.1125 110.959 28.1125C111.176 28.1125 111.359 28.1193 111.508 28.1328C111.671 28.1464 111.813 28.1667 111.935 28.1939C112.071 28.2074 112.2 28.221 112.322 28.2345C112.444 28.2481 112.586 28.2549 112.749 28.2549C113.061 28.2549 113.38 28.2345 113.705 28.1939C114.031 28.1396 114.35 28.1125 114.662 28.1125C114.716 28.1125 114.763 28.1464 114.804 28.2142C114.845 28.2685 114.865 28.3363 114.865 28.4177C114.865 28.4855 114.845 28.5533 114.804 28.6211C114.777 28.6754 114.729 28.7093 114.662 28.7228C114.39 28.75 114.166 28.7907 113.99 28.8449C113.814 28.8992 113.651 28.9738 113.502 29.0687C113.353 29.1637 113.21 29.2789 113.075 29.4146C112.939 29.5367 112.776 29.6859 112.586 29.8622C112.464 29.9707 112.301 30.1199 112.098 30.3098C111.895 30.4997 111.671 30.7031 111.427 30.9201C111.196 31.1236 110.965 31.3203 110.735 31.5102C110.518 31.7001 110.328 31.856 110.165 31.9781C110.111 32.0188 110.091 32.0595 110.104 32.1002C110.118 32.1409 110.145 32.1612 110.186 32.1612C110.728 32.1883 111.176 32.2833 111.528 32.4461C111.895 32.5953 112.2 32.7919 112.444 33.0361C112.688 33.2666 112.892 33.5311 113.054 33.8295C113.231 34.1279 113.4 34.4399 113.563 34.7654C113.739 35.0774 113.929 35.3894 114.133 35.7013C114.35 35.9997 114.621 36.2778 114.946 36.5355C115.041 36.6033 115.157 36.6576 115.292 36.6982C115.441 36.7389 115.591 36.7661 115.74 36.7796C115.821 36.7796 115.882 36.8135 115.923 36.8814C115.964 36.9492 115.984 37.0238 115.984 37.1052C115.984 37.173 115.964 37.234 115.923 37.2883C115.882 37.3561 115.821 37.39 115.74 37.39Z" fill="#1A1A1A"/>
<path d="M98.3028 32.3038C98.3028 32.8192 98.3638 33.3143 98.4859 33.789C98.608 34.2502 98.7911 34.6639 99.0352 35.0301C99.2929 35.3828 99.6184 35.6676 100.012 35.8846C100.405 36.0881 100.88 36.1898 101.436 36.1898C101.911 36.1898 102.372 36.1559 102.819 36.0881C103.281 36.0067 103.667 35.8304 103.979 35.5591C104.033 35.5048 104.094 35.4913 104.162 35.5184C104.23 35.532 104.291 35.5659 104.345 35.6201C104.4 35.6608 104.434 35.7151 104.447 35.7829C104.474 35.8507 104.467 35.9117 104.427 35.966C103.979 36.5628 103.457 36.9697 102.86 37.1867C102.263 37.3902 101.558 37.4919 100.744 37.4919C100.202 37.4919 99.6591 37.4105 99.1166 37.2477C98.574 37.085 98.079 36.8137 97.6314 36.4339C97.1973 36.0542 96.8447 35.5523 96.5734 34.9284C96.3021 34.2909 96.1665 33.5042 96.1665 32.5683C96.1665 31.9037 96.275 31.2798 96.492 30.6965C96.7226 30.0997 97.0481 29.5911 97.4686 29.1706C97.9026 28.7366 98.4316 28.3975 99.0556 28.1533C99.6795 27.8956 100.398 27.7668 101.212 27.7668C101.606 27.7668 101.985 27.8143 102.352 27.9092C102.731 28.0041 103.064 28.1466 103.348 28.3365C103.647 28.5128 103.884 28.7366 104.061 29.0079C104.237 29.2791 104.325 29.5843 104.325 29.9234C104.325 30.1675 104.244 30.3981 104.081 30.6151C103.918 30.8322 103.66 30.9407 103.308 30.9407C103.023 30.9407 102.786 30.8661 102.596 30.7169C102.419 30.5677 102.331 30.3507 102.331 30.0658C102.331 29.8759 102.379 29.7199 102.474 29.5979C102.582 29.4758 102.636 29.3605 102.636 29.252C102.636 29.0079 102.474 28.8247 102.148 28.7027C101.823 28.567 101.463 28.4992 101.07 28.4992C100.554 28.4992 100.12 28.6077 99.7676 28.8247C99.4286 29.0418 99.1437 29.3334 98.9131 29.6996C98.6961 30.0523 98.5401 30.4592 98.4452 30.9203C98.3502 31.3679 98.3028 31.8291 98.3028 32.3038Z" fill="#1A1A1A"/>
<path d="M91.5845 33.0769C91.5845 32.9277 91.5777 32.8396 91.5641 32.8124C91.5506 32.7718 91.5167 32.7514 91.4624 32.7514C90.3502 32.8464 89.5228 33.0837 88.9803 33.4635C88.4513 33.8297 88.1868 34.3044 88.1868 34.8877C88.1868 35.2946 88.2885 35.6405 88.492 35.9253C88.6954 36.1966 89.0345 36.3322 89.5093 36.3322C89.8212 36.3322 90.1467 36.2712 90.4858 36.1491C90.8385 36.027 91.1505 35.8507 91.4217 35.6201C91.5302 35.5116 91.5845 35.4031 91.5845 35.2946V33.0769ZM93.497 35.0911C93.497 35.5659 93.5377 35.8982 93.619 36.0881C93.714 36.278 93.8903 36.3729 94.148 36.3729C94.2972 36.3729 94.4193 36.3593 94.5142 36.3322C94.6092 36.2915 94.7448 36.2169 94.9211 36.1084C94.9618 36.0813 95.0025 36.0813 95.0432 36.1084C95.0975 36.1355 95.1382 36.1762 95.1653 36.2305C95.206 36.2712 95.2331 36.3254 95.2467 36.3932C95.2602 36.4475 95.2467 36.495 95.206 36.5357C94.677 37.1731 94.0531 37.4919 93.3342 37.4919C92.9408 37.4919 92.6018 37.3902 92.3169 37.1867C92.0457 36.9697 91.8422 36.7188 91.7066 36.4339C91.6794 36.3661 91.6387 36.3593 91.5845 36.4136C91.2318 36.7255 90.8181 36.9833 90.3434 37.1867C89.8823 37.3902 89.299 37.4919 88.5937 37.4919C87.8206 37.4919 87.2238 37.2884 86.8033 36.8815C86.3828 36.4611 86.1726 35.871 86.1726 35.1115C86.1726 34.1349 86.627 33.3889 87.5357 32.8735C88.4445 32.3445 89.767 32.08 91.5031 32.08C91.5302 32.08 91.5506 32.0461 91.5641 31.9783C91.5777 31.9105 91.5845 31.7545 91.5845 31.5103V30.961C91.5845 30.6219 91.5574 30.3032 91.5031 30.0048C91.4489 29.7064 91.3539 29.4487 91.2183 29.2317C91.0962 29.0011 90.9199 28.8247 90.6893 28.7027C90.4587 28.567 90.1739 28.4992 89.8348 28.4992C89.3329 28.4992 88.926 28.6009 88.6141 28.8044C88.3021 28.9943 88.1461 29.2452 88.1461 29.5572C88.1461 29.7064 88.1936 29.8556 88.2885 30.0048C88.3835 30.1404 88.4309 30.2828 88.4309 30.432C88.4309 30.6219 88.336 30.805 88.1461 30.9814C87.9562 31.1577 87.7256 31.2459 87.4544 31.2459C87.0882 31.2459 86.8237 31.1509 86.6609 30.961C86.5117 30.7576 86.4371 30.5134 86.4371 30.2286C86.4371 29.8895 86.532 29.5707 86.7219 29.2723C86.9118 28.9604 87.1695 28.6959 87.4951 28.4789C87.8206 28.2619 88.2004 28.0923 88.6344 27.9702C89.0684 27.8346 89.5228 27.7668 89.9975 27.7668C91.0826 27.7668 91.9371 28.0177 92.5611 28.5196C93.185 29.0214 93.497 29.8556 93.497 31.0221V35.0911Z" fill="#1A1A1A"/>
<path d="M80.0466 29.8415C80.2094 29.8415 80.3246 29.8144 80.3925 29.7602C80.4738 29.7059 80.5145 29.5974 80.5145 29.4346V26.6677C80.5145 26.2472 80.4874 25.8878 80.4332 25.5894C80.3925 25.291 80.3043 25.0468 80.1687 24.8569C80.033 24.667 79.8364 24.5246 79.5786 24.4297C79.3345 24.3212 79.0022 24.2533 78.5817 24.2262C78.5003 24.2262 78.4393 24.1923 78.3986 24.1245C78.3579 24.0431 78.3376 23.9617 78.3376 23.8803C78.3376 23.799 78.3579 23.7244 78.3986 23.6565C78.4393 23.5887 78.5003 23.5548 78.5817 23.5548C79.0158 23.5548 79.5108 23.5752 80.0669 23.6158C80.623 23.6565 81.1452 23.6769 81.6335 23.6769C81.9184 23.6769 82.1829 23.6701 82.427 23.6565C82.6847 23.643 82.9289 23.6294 83.1594 23.6158C83.4036 23.6023 83.6477 23.5887 83.8919 23.5752C84.136 23.5616 84.4005 23.5548 84.6853 23.5548C84.7667 23.5548 84.821 23.5887 84.8481 23.6565C84.8888 23.7244 84.9024 23.799 84.8888 23.8803C84.8888 23.9617 84.8685 24.0431 84.8278 24.1245C84.7871 24.1923 84.7328 24.2262 84.665 24.2262C84.2445 24.2533 83.9054 24.3144 83.6477 24.4093C83.39 24.4907 83.1933 24.6263 83.0577 24.8162C82.9221 24.9926 82.8339 25.2299 82.7932 25.5283C82.7525 25.8267 82.7322 26.2065 82.7322 26.6677V34.6431C82.7322 35.0907 82.7593 35.4433 82.8136 35.701C82.8678 35.9452 82.9628 36.1418 83.0984 36.291C83.2476 36.4267 83.4511 36.5284 83.7088 36.5962C83.9665 36.6505 84.2988 36.6979 84.7057 36.7386C84.7871 36.7522 84.8481 36.7929 84.8888 36.8607C84.9431 36.9285 84.9702 37.0031 84.9702 37.0845C84.9702 37.1659 84.9431 37.2405 84.8888 37.3083C84.8481 37.3761 84.7803 37.41 84.6853 37.41C84.1428 37.41 83.6206 37.3829 83.1187 37.3287C82.6305 37.2744 82.1422 37.2473 81.6539 37.2473C81.1385 37.2473 80.6027 37.2744 80.0466 37.3287C79.504 37.3829 79.009 37.41 78.5614 37.41C78.48 37.41 78.419 37.3761 78.3783 37.3083C78.3376 37.2405 78.3172 37.1659 78.3172 37.0845C78.3172 37.0031 78.3376 36.9285 78.3783 36.8607C78.419 36.7929 78.48 36.7522 78.5614 36.7386C78.9818 36.6979 79.3142 36.6505 79.5583 36.5962C79.816 36.5284 80.0127 36.4267 80.1483 36.291C80.2975 36.1418 80.3925 35.9452 80.4332 35.701C80.4874 35.4433 80.5145 35.0907 80.5145 34.6431V31.2657C80.5145 30.9131 80.3653 30.7367 80.0669 30.7367H73.9837C73.6853 30.7367 73.5361 30.8724 73.5361 31.1436V34.6431C73.5361 35.0907 73.5632 35.4433 73.6174 35.701C73.6717 35.9452 73.7666 36.1418 73.9023 36.291C74.0515 36.4267 74.2549 36.5284 74.5126 36.5962C74.7703 36.6505 75.1026 36.6979 75.5096 36.7386C75.5909 36.7522 75.652 36.7929 75.6927 36.8607C75.7469 36.9285 75.774 37.0031 75.774 37.0845C75.774 37.1659 75.7469 37.2405 75.6927 37.3083C75.652 37.3761 75.5842 37.41 75.4892 37.41C74.9467 37.41 74.4245 37.3829 73.9226 37.3287C73.4343 37.2744 72.946 37.2473 72.4577 37.2473C71.9423 37.2473 71.4066 37.2744 70.8505 37.3287C70.3079 37.3829 69.8128 37.41 69.3652 37.41C69.2839 37.41 69.2228 37.3761 69.1821 37.3083C69.1414 37.2405 69.1211 37.1659 69.1211 37.0845C69.1211 37.0031 69.1414 36.9285 69.1821 36.8607C69.2228 36.7929 69.2839 36.7522 69.3652 36.7386C69.7857 36.6979 70.118 36.6505 70.3622 36.5962C70.6199 36.5284 70.8165 36.4267 70.9522 36.291C71.1014 36.1418 71.1963 35.9452 71.237 35.701C71.2913 35.4433 71.3184 35.0907 71.3184 34.6431V26.6677C71.3184 26.2472 71.2913 25.8878 71.237 25.5894C71.1963 25.291 71.1082 25.0468 70.9725 24.8569C70.8369 24.667 70.6402 24.5246 70.3825 24.4297C70.1384 24.3212 69.8061 24.2533 69.3856 24.2262C69.3042 24.2262 69.2432 24.1923 69.2025 24.1245C69.1618 24.0431 69.1414 23.9617 69.1414 23.8803C69.1414 23.799 69.1618 23.7244 69.2025 23.6565C69.2432 23.5887 69.3042 23.5548 69.3856 23.5548C69.8196 23.5548 70.3147 23.5752 70.8708 23.6158C71.4269 23.6565 71.9491 23.6769 72.4374 23.6769C72.7222 23.6769 72.9867 23.6701 73.2309 23.6565C73.4886 23.643 73.7327 23.6294 73.9633 23.6158C74.2075 23.6023 74.4516 23.5887 74.6957 23.5752C74.9399 23.5616 75.2044 23.5548 75.4892 23.5548C75.5706 23.5548 75.6248 23.5887 75.652 23.6565C75.6927 23.7244 75.7062 23.799 75.6927 23.8803C75.6927 23.9617 75.6723 24.0431 75.6316 24.1245C75.5909 24.1923 75.5367 24.2262 75.4689 24.2262C75.0484 24.2533 74.7093 24.3144 74.4516 24.4093C74.1939 24.4907 73.9972 24.6263 73.8616 24.8162C73.7259 24.9926 73.6378 25.2299 73.5971 25.5283C73.5564 25.8267 73.5361 26.2065 73.5361 26.6677V29.4346C73.5361 29.7059 73.6853 29.8415 73.9837 29.8415H80.0466Z" fill="#1A1A1A"/>
<path d="M53.6144 29.9234C54.2383 29.625 54.6859 29.2859 54.9572 28.9061C55.242 28.5263 55.3844 28.0312 55.3844 27.4209C55.3844 27.0953 55.337 26.8037 55.242 26.546C55.1471 26.2883 55.0182 26.0713 54.8555 25.895C54.7063 25.7186 54.5367 25.5898 54.3468 25.5084C54.1569 25.4135 53.967 25.366 53.7771 25.366C53.4109 25.366 53.1125 25.4202 52.8819 25.5287C52.6649 25.6373 52.4886 25.7797 52.353 25.956C52.2309 26.1188 52.1427 26.3154 52.0885 26.546C52.0478 26.763 52.0274 26.9868 52.0274 27.2174C52.0274 27.4751 52.0817 27.726 52.1902 27.9702C52.2987 28.2143 52.4276 28.4585 52.5768 28.7026C52.7395 28.9332 52.9091 29.1502 53.0854 29.3537C53.2753 29.5571 53.4516 29.747 53.6144 29.9234ZM55.9541 35.1318C55.3573 34.4943 54.7741 33.8771 54.2044 33.2803C53.6483 32.6835 53.0854 32.0664 52.5157 31.4289C52.041 31.8223 51.7019 32.2563 51.4985 32.731C51.3086 33.2057 51.2136 33.6873 51.2136 34.1755C51.2136 34.8266 51.3696 35.3556 51.6816 35.7625C52.0071 36.1558 52.5225 36.3525 53.2278 36.3525C53.7025 36.3525 54.1976 36.2576 54.713 36.0677C55.2285 35.8642 55.6489 35.6133 55.9745 35.3149C56.0287 35.2606 56.0219 35.1996 55.9541 35.1318ZM54.062 30.5134C54.591 31.0695 55.1199 31.6188 55.6489 32.1614C56.1779 32.7039 56.7205 33.2532 57.2766 33.8093C57.7649 33.1854 58.1989 32.6429 58.5787 32.1817C58.9584 31.707 59.3111 31.3136 59.6366 31.0017C59.9757 30.6761 60.2945 30.432 60.5929 30.2692C60.9048 30.1065 61.2371 30.0251 61.5898 30.0251C61.9967 30.0251 62.3087 30.1268 62.5257 30.3303C62.7563 30.5337 62.8716 30.7779 62.8716 31.0627C62.8716 31.2933 62.8037 31.5035 62.6681 31.6934C62.5325 31.8833 62.2748 31.9782 61.895 31.9782C61.6101 31.9782 61.4202 31.924 61.3253 31.8155C61.2439 31.707 61.2032 31.612 61.2032 31.5306C61.2032 31.4764 61.1897 31.4018 61.1625 31.3068C61.149 31.1983 61.0337 31.1441 60.8167 31.1441C60.6675 31.1441 60.5183 31.1916 60.3691 31.2865C60.2199 31.3814 60.0368 31.551 59.8197 31.7951C59.6163 32.0257 59.3518 32.3445 59.0263 32.7514C58.7007 33.1583 58.2938 33.6737 57.8055 34.2976C58.009 34.4875 58.2396 34.7045 58.4973 34.9487C58.755 35.1793 59.0195 35.4031 59.2908 35.6201C59.5756 35.8235 59.8536 35.9999 60.1249 36.1491C60.4098 36.2847 60.6742 36.3525 60.9184 36.3525C61.3931 36.3525 61.7458 36.244 61.9764 36.027C62.2069 35.7964 62.3697 35.4844 62.4646 35.0911C62.4782 35.0368 62.5189 34.9961 62.5867 34.969C62.6545 34.9283 62.7224 34.9148 62.7902 34.9283C62.858 34.9419 62.919 34.969 62.9733 35.0097C63.0275 35.0504 63.0479 35.1114 63.0343 35.1928C63.0072 35.5048 62.9258 35.81 62.7902 36.1084C62.6545 36.4068 62.4714 36.678 62.2408 36.9222C62.0238 37.1663 61.7593 37.363 61.4474 37.5122C61.149 37.6614 60.8099 37.736 60.4301 37.736C60.0232 37.736 59.6434 37.6817 59.2908 37.5732C58.9381 37.4647 58.6058 37.3223 58.2938 37.146C57.9819 36.9697 57.6835 36.7662 57.3986 36.5356C57.1138 36.2915 56.8425 36.0405 56.5848 35.7828C56.5306 35.7421 56.4831 35.7421 56.4424 35.7828C55.8592 36.4475 55.2488 36.9425 54.6113 37.268C53.9874 37.58 53.2956 37.736 52.5361 37.736C52.0613 37.736 51.607 37.6682 51.1729 37.5325C50.7525 37.4105 50.3795 37.2274 50.0539 36.9832C49.7284 36.7391 49.4707 36.4339 49.2808 36.0677C49.0909 35.6879 48.996 35.2539 48.996 34.7656C48.996 34.223 49.0706 33.7551 49.2198 33.3617C49.3825 32.9548 49.5996 32.6022 49.8708 32.3038C50.1557 32.0054 50.4812 31.7477 50.8474 31.5306C51.2136 31.3001 51.607 31.083 52.0274 30.8796C51.8104 30.649 51.6002 30.4252 51.3967 30.2082C51.1933 29.9776 51.0102 29.7335 50.8474 29.4758C50.6846 29.218 50.5558 28.94 50.4608 28.6416C50.3659 28.3296 50.3184 27.9702 50.3184 27.5633C50.3184 27.2242 50.3862 26.8851 50.5219 26.546C50.6575 26.1934 50.861 25.8746 51.1322 25.5898C51.4171 25.3049 51.7765 25.0744 52.2105 24.898C52.6581 24.7217 53.1871 24.6335 53.7975 24.6335C54.1773 24.6335 54.5638 24.6878 54.9572 24.7963C55.3505 24.8913 55.7032 25.0472 56.0151 25.2643C56.3271 25.4677 56.578 25.7458 56.7679 26.0984C56.9714 26.4375 57.0731 26.8512 57.0731 27.3395C57.0731 27.7464 56.9714 28.1126 56.7679 28.4381C56.578 28.7637 56.3339 29.0553 56.0355 29.313C55.7371 29.5707 55.4116 29.8013 55.0589 30.0047C54.7063 30.1946 54.3739 30.3642 54.062 30.5134Z" fill="#1A1A1A"/>
<path d="M135.017 9.98966C135.017 9.84046 135.01 9.7523 134.997 9.72517C134.983 9.68448 134.949 9.66413 134.895 9.66413C133.783 9.75908 132.956 9.99644 132.413 10.3762C131.884 10.7424 131.62 11.2172 131.62 11.8004C131.62 12.2073 131.721 12.5532 131.925 12.838C132.128 13.1093 132.467 13.2449 132.942 13.2449C133.254 13.2449 133.579 13.1839 133.919 13.0618C134.271 12.9397 134.583 12.7634 134.854 12.5328C134.963 12.4243 135.017 12.3158 135.017 12.2073V9.98966ZM136.93 12.0039C136.93 12.4786 136.97 12.8109 137.052 13.0008C137.147 13.1907 137.323 13.2856 137.581 13.2856C137.73 13.2856 137.852 13.2721 137.947 13.2449C138.042 13.2042 138.178 13.1296 138.354 13.0211C138.395 12.994 138.435 12.994 138.476 13.0211C138.53 13.0483 138.571 13.0889 138.598 13.1432C138.639 13.1839 138.666 13.2381 138.679 13.306C138.693 13.3602 138.679 13.4077 138.639 13.4484C138.11 14.0859 137.486 14.4046 136.767 14.4046C136.374 14.4046 136.035 14.3029 135.75 14.0994C135.478 13.8824 135.275 13.6315 135.139 13.3467C135.112 13.2788 135.071 13.2721 135.017 13.3263C134.665 13.6383 134.251 13.896 133.776 14.0994C133.315 14.3029 132.732 14.4046 132.026 14.4046C131.253 14.4046 130.657 14.2012 130.236 13.7943C129.816 13.3738 129.605 12.7838 129.605 12.0242C129.605 11.0476 130.06 10.3016 130.968 9.7862C131.877 9.25722 133.2 8.99273 134.936 8.99273C134.963 8.99273 134.983 8.95882 134.997 8.89101C135.01 8.82319 135.017 8.66721 135.017 8.42306V7.87373C135.017 7.53464 134.99 7.2159 134.936 6.9175C134.882 6.6191 134.787 6.36139 134.651 6.14437C134.529 5.91379 134.353 5.73747 134.122 5.61539C133.891 5.47976 133.607 5.41194 133.268 5.41194C132.766 5.41194 132.359 5.51367 132.047 5.71712C131.735 5.90701 131.579 6.15794 131.579 6.4699C131.579 6.6191 131.626 6.7683 131.721 6.9175C131.816 7.05314 131.864 7.19555 131.864 7.34475C131.864 7.53465 131.769 7.71775 131.579 7.89408C131.389 8.07041 131.158 8.15857 130.887 8.15857C130.521 8.15857 130.256 8.06363 130.094 7.87373C129.944 7.67028 129.87 7.42614 129.87 7.1413C129.87 6.80221 129.965 6.48347 130.155 6.18507C130.345 5.8731 130.602 5.60861 130.928 5.39159C131.253 5.17458 131.633 5.00503 132.067 4.88296C132.501 4.74732 132.956 4.6795 133.43 4.6795C134.515 4.6795 135.37 4.93043 135.994 5.43229C136.618 5.93414 136.93 6.7683 136.93 7.93477V12.0039Z" fill="#1A1A1A"/>
<path d="M125.023 9.98966C125.023 9.84046 125.017 9.7523 125.003 9.72517C124.989 9.68448 124.956 9.66413 124.901 9.66413C123.789 9.75908 122.962 9.99644 122.419 10.3762C121.89 10.7424 121.626 11.2172 121.626 11.8004C121.626 12.2073 121.727 12.5532 121.931 12.838C122.134 13.1093 122.473 13.2449 122.948 13.2449C123.26 13.2449 123.586 13.1839 123.925 13.0618C124.277 12.9397 124.589 12.7634 124.861 12.5328C124.969 12.4243 125.023 12.3158 125.023 12.2073V9.98966ZM126.936 12.0039C126.936 12.4786 126.976 12.8109 127.058 13.0008C127.153 13.1907 127.329 13.2856 127.587 13.2856C127.736 13.2856 127.858 13.2721 127.953 13.2449C128.048 13.2042 128.184 13.1296 128.36 13.0211C128.401 12.994 128.441 12.994 128.482 13.0211C128.536 13.0483 128.577 13.0889 128.604 13.1432C128.645 13.1839 128.672 13.2381 128.686 13.306C128.699 13.3602 128.686 13.4077 128.645 13.4484C128.116 14.0859 127.492 14.4046 126.773 14.4046C126.38 14.4046 126.041 14.3029 125.756 14.0994C125.484 13.8824 125.281 13.6315 125.145 13.3467C125.118 13.2788 125.078 13.2721 125.023 13.3263C124.671 13.6383 124.257 13.896 123.782 14.0994C123.321 14.3029 122.738 14.4046 122.033 14.4046C121.259 14.4046 120.663 14.2012 120.242 13.7943C119.822 13.3738 119.611 12.7838 119.611 12.0242C119.611 11.0476 120.066 10.3016 120.975 9.7862C121.883 9.25722 123.206 8.99273 124.942 8.99273C124.969 8.99273 124.989 8.95882 125.003 8.89101C125.017 8.82319 125.023 8.66721 125.023 8.42306V7.87373C125.023 7.53464 124.996 7.2159 124.942 6.9175C124.888 6.6191 124.793 6.36139 124.657 6.14437C124.535 5.91379 124.359 5.73747 124.128 5.61539C123.898 5.47976 123.613 5.41194 123.274 5.41194C122.772 5.41194 122.365 5.51367 122.053 5.71712C121.741 5.90701 121.585 6.15794 121.585 6.4699C121.585 6.6191 121.632 6.7683 121.727 6.9175C121.822 7.05314 121.87 7.19555 121.87 7.34475C121.87 7.53465 121.775 7.71775 121.585 7.89408C121.395 8.07041 121.164 8.15857 120.893 8.15857C120.527 8.15857 120.263 8.06363 120.1 7.87373C119.951 7.67028 119.876 7.42614 119.876 7.1413C119.876 6.80221 119.971 6.48347 120.161 6.18507C120.351 5.8731 120.608 5.60861 120.934 5.39159C121.259 5.17458 121.639 5.00503 122.073 4.88296C122.507 4.74732 122.962 4.6795 123.436 4.6795C124.521 4.6795 125.376 4.93043 126 5.43229C126.624 5.93414 126.936 6.7683 126.936 7.93477V12.0039Z" fill="#1A1A1A"/>
<path d="M111.556 12.1666C111.556 12.248 111.604 12.3701 111.699 12.5328C111.794 12.6956 111.922 12.8516 112.085 13.0008C112.262 13.15 112.465 13.2856 112.696 13.4077C112.94 13.5162 113.204 13.5704 113.489 13.5704C113.977 13.5704 114.384 13.4619 114.71 13.2449C115.035 13.0143 115.293 12.7091 115.483 12.3294C115.673 11.936 115.802 11.4884 115.869 10.9866C115.951 10.4847 115.992 9.95573 115.992 9.39962C115.992 8.9249 115.964 8.48408 115.91 8.07717C115.856 7.6567 115.754 7.29048 115.605 6.97852C115.469 6.66656 115.273 6.42241 115.015 6.24608C114.757 6.05619 114.418 5.96125 113.998 5.96125C113.645 5.96125 113.319 6.02907 113.021 6.1647C112.723 6.30034 112.465 6.4631 112.248 6.65299C112.031 6.84288 111.861 7.05312 111.739 7.2837C111.617 7.51428 111.556 7.71774 111.556 7.89406V12.1666ZM109.644 3.88601C109.644 3.30278 109.637 2.83483 109.623 2.48218C109.61 2.12953 109.556 1.86504 109.461 1.68871C109.379 1.49882 109.244 1.36996 109.054 1.30215C108.864 1.23433 108.593 1.18007 108.24 1.13938C108.172 1.13938 108.118 1.10547 108.077 1.03766C108.05 0.969838 108.03 0.90202 108.016 0.834202C108.016 0.766383 108.03 0.698565 108.057 0.630747C108.097 0.562929 108.159 0.52902 108.24 0.52902C108.633 0.501893 109.074 0.461202 109.562 0.406948C110.064 0.352693 110.566 0.250966 111.068 0.101767C111.258 0.0475121 111.38 0.0610756 111.434 0.142457C111.502 0.210275 111.543 0.284875 111.556 0.366257V6.20539C111.556 6.23252 111.563 6.24608 111.577 6.24608C111.604 6.24608 111.624 6.23252 111.638 6.20539C111.895 5.81205 112.262 5.45939 112.736 5.14743C113.225 4.83547 113.821 4.67949 114.527 4.67949C115.11 4.67949 115.625 4.80834 116.073 5.06605C116.52 5.31019 116.893 5.6425 117.192 6.06297C117.504 6.46988 117.734 6.94461 117.884 7.48715C118.046 8.0297 118.128 8.59259 118.128 9.17582C118.128 10.071 117.985 10.8509 117.701 11.5155C117.429 12.1666 117.056 12.7091 116.582 13.1432C116.107 13.5637 115.557 13.8824 114.934 14.0994C114.31 14.3029 113.652 14.4046 112.96 14.4046C112.485 14.4046 111.977 14.3707 111.434 14.3029C110.892 14.2486 110.295 14.1062 109.644 13.8756V3.88601Z" fill="#1A1A1A"/>
<path d="M100.47 12.1666C100.47 12.248 100.517 12.3701 100.612 12.5328C100.707 12.6956 100.836 12.8516 100.999 13.0008C101.175 13.15 101.378 13.2856 101.609 13.4077C101.853 13.5162 102.118 13.5704 102.402 13.5704C102.891 13.5704 103.298 13.4619 103.623 13.2449C103.949 13.0143 104.206 12.7091 104.396 12.3294C104.586 11.936 104.715 11.4884 104.783 10.9866C104.864 10.4847 104.905 9.95573 104.905 9.39962C104.905 8.9249 104.878 8.48408 104.823 8.07717C104.769 7.6567 104.667 7.29048 104.518 6.97852C104.383 6.66656 104.186 6.42241 103.928 6.24608C103.671 6.05619 103.331 5.96125 102.911 5.96125C102.558 5.96125 102.233 6.02907 101.934 6.1647C101.636 6.30034 101.378 6.4631 101.161 6.65299C100.944 6.84288 100.775 7.05312 100.653 7.2837C100.531 7.51428 100.47 7.71774 100.47 7.89406V12.1666ZM98.5571 3.88601C98.5571 3.30278 98.5503 2.83483 98.5367 2.48218C98.5232 2.12953 98.4689 1.86504 98.374 1.68871C98.2926 1.49882 98.1569 1.36996 97.9671 1.30215C97.7772 1.23433 97.5059 1.18007 97.1532 1.13938C97.0854 1.13938 97.0312 1.10547 96.9905 1.03766C96.9634 0.969838 96.943 0.90202 96.9294 0.834202C96.9294 0.766383 96.943 0.698565 96.9701 0.630747C97.0108 0.562929 97.0719 0.52902 97.1532 0.52902C97.5466 0.501893 97.9874 0.461202 98.4757 0.406948C98.9775 0.352693 99.4794 0.250966 99.9813 0.101767C100.171 0.0475121 100.293 0.0610756 100.347 0.142457C100.415 0.210275 100.456 0.284875 100.47 0.366257V6.20539C100.47 6.23252 100.476 6.24608 100.49 6.24608C100.517 6.24608 100.537 6.23252 100.551 6.20539C100.809 5.81205 101.175 5.45939 101.65 5.14743C102.138 4.83547 102.735 4.67949 103.44 4.67949C104.023 4.67949 104.539 4.80834 104.986 5.06605C105.434 5.31019 105.807 5.6425 106.105 6.06297C106.417 6.46988 106.648 6.94461 106.797 7.48715C106.96 8.0297 107.041 8.59259 107.041 9.17582C107.041 10.071 106.899 10.8509 106.614 11.5155C106.343 12.1666 105.97 12.7091 105.495 13.1432C105.02 13.5637 104.471 13.8824 103.847 14.0994C103.223 14.3029 102.565 14.4046 101.873 14.4046C101.399 14.4046 100.89 14.3707 100.347 14.3029C99.8049 14.2486 99.2081 14.1062 98.5571 13.8756V3.88601Z" fill="#1A1A1A"/>
<path d="M92.856 9.98966C92.856 9.84046 92.8492 9.7523 92.8356 9.72517C92.8221 9.68448 92.7882 9.66413 92.7339 9.66413C91.6217 9.75908 90.7943 9.99644 90.2518 10.3762C89.7228 10.7424 89.4583 11.2172 89.4583 11.8004C89.4583 12.2073 89.56 12.5532 89.7635 12.838C89.9669 13.1093 90.306 13.2449 90.7807 13.2449C91.0927 13.2449 91.4182 13.1839 91.7573 13.0618C92.11 12.9397 92.4219 12.7634 92.6932 12.5328C92.8017 12.4243 92.856 12.3158 92.856 12.2073V9.98966ZM94.7684 12.0039C94.7684 12.4786 94.8091 12.8109 94.8905 13.0008C94.9855 13.1907 95.1618 13.2856 95.4195 13.2856C95.5687 13.2856 95.6908 13.2721 95.7857 13.2449C95.8807 13.2042 96.0163 13.1296 96.1926 13.0211C96.2333 12.994 96.274 12.994 96.3147 13.0211C96.369 13.0483 96.4096 13.0889 96.4368 13.1432C96.4775 13.1839 96.5046 13.2381 96.5182 13.306C96.5317 13.3602 96.5182 13.4077 96.4775 13.4484C95.9485 14.0859 95.3246 14.4046 94.6057 14.4046C94.2123 14.4046 93.8732 14.3029 93.5884 14.0994C93.3171 13.8824 93.1137 13.6315 92.978 13.3467C92.9509 13.2788 92.9102 13.2721 92.856 13.3263C92.5033 13.6383 92.0896 13.896 91.6149 14.0994C91.1537 14.3029 90.5705 14.4046 89.8652 14.4046C89.0921 14.4046 88.4953 14.2012 88.0748 13.7943C87.6543 13.3738 87.4441 12.7838 87.4441 12.0242C87.4441 11.0476 87.8985 10.3016 88.8072 9.78621C89.716 9.25722 91.0384 8.99273 92.7746 8.99273C92.8017 8.99273 92.8221 8.95882 92.8356 8.89101C92.8492 8.82319 92.856 8.66721 92.856 8.42306V7.87373C92.856 7.53464 92.8288 7.2159 92.7746 6.9175C92.7203 6.6191 92.6254 6.36139 92.4898 6.14437C92.3677 5.91379 92.1914 5.73747 91.9608 5.61539C91.7302 5.47976 91.4454 5.41194 91.1063 5.41194C90.6044 5.41194 90.1975 5.51367 89.8855 5.71712C89.5736 5.90701 89.4176 6.15794 89.4176 6.4699C89.4176 6.6191 89.4651 6.7683 89.56 6.9175C89.655 7.05314 89.7024 7.19555 89.7024 7.34475C89.7024 7.53465 89.6075 7.71775 89.4176 7.89408C89.2277 8.07041 88.9971 8.15857 88.7259 8.15857C88.3596 8.15857 88.0951 8.06363 87.9324 7.87373C87.7832 7.67028 87.7086 7.42614 87.7086 7.1413C87.7086 6.80221 87.8035 6.48347 87.9934 6.18507C88.1833 5.8731 88.441 5.60861 88.7665 5.39159C89.0921 5.17458 89.4718 5.00503 89.9059 4.88296C90.3399 4.74732 90.7943 4.6795 91.269 4.6795C92.3541 4.6795 93.2086 4.93043 93.8326 5.43229C94.4565 5.93414 94.7684 6.7683 94.7684 7.93477V12.0039Z" fill="#1A1A1A"/>
<path d="M82.2424 11.5561C82.2424 12.0037 82.2627 12.3563 82.3034 12.614C82.3441 12.8582 82.4323 13.0481 82.5679 13.1837C82.7171 13.3194 82.9205 13.4211 83.1783 13.4889C83.436 13.5432 83.7818 13.5906 84.2159 13.6313C84.2973 13.6449 84.3583 13.6924 84.399 13.7737C84.4532 13.8416 84.4804 13.9162 84.4804 13.9975C84.4804 14.0789 84.4532 14.1535 84.399 14.2213C84.3583 14.2892 84.2905 14.3231 84.1955 14.3231C83.653 14.3231 83.1308 14.2959 82.6289 14.2417C82.1406 14.1874 81.6523 14.1603 81.1641 14.1603C80.6486 14.1603 80.1129 14.1874 79.5568 14.2417C79.0142 14.2959 78.5192 14.3231 78.0716 14.3231C77.9902 14.3231 77.9291 14.2892 77.8884 14.2213C77.8478 14.1535 77.8274 14.0789 77.8274 13.9975C77.8274 13.9162 77.8478 13.8416 77.8884 13.7737C77.9291 13.6924 77.9902 13.6449 78.0716 13.6313C78.492 13.5906 78.8243 13.5432 79.0685 13.4889C79.3262 13.4211 79.5229 13.3194 79.6585 13.1837C79.8077 13.0481 79.9026 12.8582 79.9433 12.614C79.9976 12.3563 80.0247 12.0037 80.0247 11.5561V2.52272C80.0247 2.02087 79.8959 1.7089 79.6382 1.58683C79.394 1.4512 78.9735 1.38338 78.3767 1.38338C77.8749 1.38338 77.4612 1.42407 77.1357 1.50545C76.8101 1.57327 76.5389 1.7089 76.3218 1.91236C76.1184 2.10225 75.9488 2.36674 75.8132 2.70583C75.6911 3.04492 75.5758 3.48574 75.4673 4.02828C75.4538 4.10966 75.4063 4.16392 75.3249 4.19105C75.2571 4.21817 75.1825 4.23174 75.1011 4.23174C75.0333 4.21817 74.9655 4.19105 74.8977 4.15035C74.8434 4.10966 74.8163 4.06219 74.8163 4.00794C74.8705 3.50608 74.8977 2.99745 74.8977 2.48203C74.9112 1.95305 74.8841 1.43085 74.8163 0.915432C74.8163 0.766233 74.9112 0.664506 75.1011 0.610251C75.291 0.555997 75.5012 0.52887 75.7318 0.52887H86.6166C86.8743 0.52887 87.0846 0.555997 87.2473 0.610251C87.4237 0.650943 87.5118 0.745888 87.5118 0.895087C87.4847 1.05785 87.4576 1.26131 87.4305 1.50545C87.4169 1.73603 87.4101 1.99374 87.4101 2.27858C87.4101 2.56341 87.4169 2.85503 87.4305 3.15343C87.4576 3.45183 87.4847 3.73666 87.5118 4.00794C87.5118 4.06219 87.4779 4.11645 87.4101 4.1707C87.3423 4.21139 87.2677 4.23852 87.1863 4.25208C87.1049 4.25208 87.0235 4.23852 86.9422 4.21139C86.8743 4.18426 86.8337 4.13001 86.8201 4.04863C86.7387 3.50608 86.6302 3.06527 86.4946 2.72618C86.3589 2.37352 86.1758 2.10225 85.9452 1.91236C85.7282 1.7089 85.4569 1.57327 85.1314 1.50545C84.8059 1.42407 84.4193 1.38338 83.9717 1.38338C83.3614 1.38338 82.9205 1.4512 82.6493 1.58683C82.378 1.7089 82.2424 2.02087 82.2424 2.52272V11.5561Z" fill="#1A1A1A"/>
<path d="M69.9179 10.3354C69.8093 10.3354 69.728 10.2675 69.6737 10.1319C69.633 9.99626 69.6127 9.84706 69.6127 9.6843C69.6262 9.52154 69.6669 9.37234 69.7347 9.2367C69.8161 9.0875 69.9179 9.0129 70.0399 9.0129L73.9869 8.87048C74.0954 8.87048 74.17 8.9383 74.2107 9.07394C74.265 9.20957 74.2853 9.35877 74.2718 9.52154C74.2718 9.6843 74.2311 9.84028 74.1497 9.98948C74.0819 10.1251 73.9734 10.1929 73.8242 10.1929L69.9179 10.3354Z" fill="#1A1A1A"/>
<path d="M65.2112 3.86538C65.2112 3.28215 65.1977 2.82099 65.1705 2.4819C65.1434 2.12924 65.0756 1.85797 64.9671 1.66808C64.8586 1.47819 64.689 1.34933 64.4584 1.28152C64.2414 1.2137 63.9362 1.15944 63.5429 1.11875C63.4751 1.11875 63.4208 1.08484 63.3801 1.01703C63.353 0.949207 63.3327 0.881389 63.3191 0.813571C63.3191 0.745753 63.3327 0.677935 63.3598 0.610117C63.4005 0.542299 63.4615 0.50839 63.5429 0.50839C63.9498 0.481263 64.4381 0.440572 65.0078 0.386318C65.591 0.332063 66.1335 0.230336 66.6354 0.0811368C66.8253 0.0268823 66.9474 0.0404457 67.0016 0.121827C67.0694 0.189645 67.1101 0.264245 67.1237 0.345626V11.7391C67.1237 12.0782 67.1305 12.363 67.144 12.5936C67.1576 12.8242 67.2051 13.014 67.2865 13.1632C67.3814 13.3124 67.5238 13.4277 67.7137 13.5091C67.9172 13.5905 68.1952 13.6515 68.5479 13.6922C68.6292 13.7058 68.6903 13.7465 68.731 13.8143C68.7717 13.8686 68.792 13.9364 68.792 14.0178C68.792 14.0856 68.7717 14.1466 68.731 14.2009C68.6903 14.2687 68.6292 14.3026 68.5479 14.3026C68.2223 14.3026 67.8561 14.2755 67.4492 14.2212C67.0423 14.1805 66.6354 14.1602 66.2285 14.1602C65.7945 14.1602 65.3672 14.1805 64.9467 14.2212C64.5263 14.2755 64.099 14.3026 63.665 14.3026C63.5971 14.3026 63.5429 14.2687 63.5022 14.2009C63.4615 14.1466 63.4412 14.0856 63.4412 14.0178C63.4412 13.9364 63.4615 13.8686 63.5022 13.8143C63.5429 13.7465 63.6039 13.7058 63.6853 13.6922C64.0651 13.6515 64.3567 13.5905 64.5602 13.5091C64.7772 13.4277 64.9332 13.3192 65.0281 13.1836C65.1231 13.0344 65.1773 12.8581 65.1909 12.6546C65.2044 12.4376 65.2112 12.1731 65.2112 11.8611V3.86538Z" fill="#1A1A1A"/>
<path d="M53.2076 9.39958C53.0177 9.39958 52.882 9.43349 52.8007 9.50131C52.7193 9.55556 52.6447 9.65729 52.5769 9.80649L51.6613 12.2073C51.5935 12.4107 51.5596 12.5667 51.5596 12.6752C51.5596 12.8515 51.6003 13.0007 51.6817 13.1228C51.7766 13.2313 51.8987 13.3195 52.0479 13.3873C52.1971 13.4551 52.3666 13.5094 52.5565 13.55C52.7464 13.5907 52.9431 13.6179 53.1465 13.6314C53.2415 13.6314 53.3093 13.6721 53.35 13.7535C53.3907 13.8213 53.411 13.8959 53.411 13.9773C53.411 14.0587 53.3907 14.1333 53.35 14.2011C53.3093 14.2825 53.2415 14.3232 53.1465 14.3232C52.821 14.3232 52.448 14.296 52.0275 14.2418C51.6071 14.1875 51.2069 14.1604 50.8272 14.1604C50.4745 14.1604 50.1354 14.1875 49.8099 14.2418C49.4844 14.296 49.1317 14.3232 48.7519 14.3232C48.6841 14.3232 48.6231 14.2893 48.5688 14.2214C48.5281 14.1536 48.501 14.079 48.4874 13.9976C48.4874 13.9163 48.501 13.8417 48.5281 13.7738C48.5688 13.6925 48.6366 13.645 48.7316 13.6314L49.0368 13.5907C49.2402 13.55 49.4233 13.5026 49.5861 13.4483C49.7624 13.3805 49.9184 13.2788 50.054 13.1431C50.2032 13.0075 50.3456 12.8312 50.4813 12.6142C50.6169 12.3836 50.7526 12.092 50.8882 11.7393L55.4863 0.162762C55.5269 0.0542542 55.6355 0 55.8118 0C56.0017 0 56.1509 0.0542542 56.2594 0.162762C56.5985 1.03083 56.9579 1.95994 57.3377 2.95009C57.731 3.94023 58.1312 4.95072 58.5381 5.98155C58.945 6.99882 59.3519 8.01609 59.7588 9.03337C60.1657 10.0371 60.5523 10.9865 60.9185 11.8817C61.0812 12.2751 61.2372 12.5802 61.3864 12.7973C61.5492 13.0143 61.7052 13.177 61.8544 13.2856C62.0171 13.3941 62.1799 13.4687 62.3427 13.5094C62.5054 13.55 62.6818 13.5907 62.8716 13.6314C62.953 13.645 63.0073 13.6925 63.0344 13.7738C63.0751 13.8417 63.0954 13.9163 63.0954 13.9976C63.0954 14.079 63.0751 14.1536 63.0344 14.2214C63.0073 14.2893 62.9598 14.3232 62.892 14.3232C62.458 14.3232 62.0375 14.296 61.6306 14.2418C61.2372 14.1875 60.7896 14.1604 60.2878 14.1604C59.7181 14.1604 59.1823 14.1875 58.6805 14.2418C58.1786 14.296 57.6971 14.3232 57.236 14.3232C57.141 14.3232 57.0664 14.2825 57.0122 14.2011C56.9715 14.1333 56.9511 14.0519 56.9511 13.957C56.9511 13.8756 56.9715 13.8078 57.0122 13.7535C57.0529 13.6857 57.1207 13.645 57.2156 13.6314C57.6768 13.5772 58.0159 13.4958 58.2329 13.3873C58.4499 13.2788 58.5584 13.055 58.5584 12.7159C58.5584 12.6209 58.5448 12.5124 58.5177 12.3904C58.5042 12.2683 58.4635 12.1055 58.3956 11.9021C58.3278 11.6851 58.2329 11.4138 58.1108 11.0883C57.9887 10.7492 57.826 10.3219 57.6225 9.80649C57.5547 9.63016 57.4598 9.52166 57.3377 9.48097C57.2292 9.42671 57.0461 9.39958 56.7884 9.39958H53.2076ZM56.707 8.60611C56.8969 8.60611 57.0257 8.57898 57.0935 8.52473C57.1614 8.45691 57.1614 8.34162 57.0935 8.17886L55.3235 3.41803C55.2964 3.35021 55.2421 3.3163 55.1607 3.3163C55.0793 3.3163 55.0251 3.35021 54.998 3.41803L53.1465 8.17886C53.0787 8.35518 53.0719 8.47048 53.1262 8.52473C53.1804 8.57898 53.2822 8.60611 53.4314 8.60611H56.707Z" fill="#1A1A1A"/>
<g clip-path="url(#clip0_1826_92)">
<path d="M0 0H6.0949C9.32784 0 12.4284 1.28901 14.7144 3.58347C17.0004 5.87792 18.2847 8.98987 18.2847 12.2347V18.3521H12.1898C8.95687 18.3521 5.85634 17.0631 3.57031 14.7686C1.28428 12.4742 0 9.36221 0 6.11736L0 0Z" fill="#EE9A09"/>
<path d="M6.09486 38.7433H-4.52995e-05V32.6259C-4.52995e-05 29.3811 1.28423 26.2691 3.57027 23.9747C5.8563 21.6802 8.95683 20.3912 12.1898 20.3912H18.2847L18.2847 26.5086C18.2847 29.7534 17.0004 32.8654 14.7144 35.1598C12.4283 37.4543 9.3278 38.7433 6.09486 38.7433Z" fill="#EE9A09"/>
<path d="M20.4586 20.3912H26.5535C29.7865 20.3912 32.887 21.6802 35.173 23.9746C37.4591 26.2691 38.7433 29.381 38.7433 32.6259V38.7433H32.6484C29.4155 38.7433 26.315 37.4542 24.0289 35.1598C21.7429 32.8653 20.4586 29.7534 20.4586 26.5085V20.3912Z" fill="#EE9A09"/>
<path d="M38.7433 0V18.3521H30.4136V8.36039H20.4586V0H38.7433Z" fill="#EE9A09"/>
</g>
<defs>
<clipPath id="clip0_1826_92">
<rect width="38.7433" height="38.7433" fill="white"/>
</clipPath>
</defs>
</svg>
